<?xml version="1.0" encoding="UTF-8"?>
<svg width="512" height="512" version="1.1" viewBox="0 0 135.47 135.47" xmlns="http://www.w3.org/2000/svg"><g transform="translate(0 -161.53)"><rect y="161.53" width="135.47" height="135.47" rx="12.214" ry="12.214" fill="#428bff" stroke-width=".2776"/><g fill="#fff" stroke-width=".26458" aria-label="10."><path d="m9.9612 210.74q5.3199-2.1096 10.64-5.4116 5.4116-3.302 9.5391-7.7964h7.7964v63.564h-11.098v-48.704q-2.4765 1.9262-6.2371 3.7606t-7.2461 3.0268z"/><path d="m101.99 229.27q0 16.051-5.8702 24.673-5.8702 8.5302-16.235 8.5302t-16.235-8.5302q-5.8702-8.6219-5.8702-24.673 0-7.9798 1.4676-14.125 1.5593-6.2371 4.4027-10.456 2.9351-4.2192 6.9709-6.4206 4.1275-2.2013 9.2639-2.2013 10.365 0 16.235 8.6219 5.8702 8.5302 5.8702 24.582zm-11.465 0q0-4.953-0.55033-9.264-0.55033-4.3109-1.8344-7.4295-1.1924-3.2103-3.2103-5.0447-2.0179-1.8344-5.0447-1.8344-3.0268 0-5.1364 1.8344-2.0179 1.8344-3.302 5.0447-1.1924 3.1186-1.7427 7.4295-0.45861 4.311-0.45861 9.264t0.45861 9.2639q0.55033 4.311 1.7427 7.5212 1.2841 3.1186 3.302 4.953 2.1096 1.8344 5.1364 1.8344 3.0268 0 5.0447-1.8344 2.0179-1.8344 3.2103-4.953 1.2841-3.2103 1.8344-7.5212 0.55033-4.3109 0.55033-9.2639z"/><path d="m125.51 255.04q0 3.2103-2.2013 5.2282-2.1096 2.0179-5.1364 2.0179-3.1186 0-5.2282-2.0179t-2.1096-5.2282 2.1096-5.2282q2.1096-2.1096 5.2282-2.1096 3.0268 0 5.1364 2.1096 2.2013 2.0179 2.2013 5.2282z"/></g></g></svg>
