<?xml version="1.0" encoding="UTF-8" standalone="no"?>
<!-- Created with Inkscape (http://www.inkscape.org/) -->

<svg
   width="512"
   height="512"
   viewBox="0 0 135.46666 135.46667"
   version="1.1"
   id="svg8"
   xmlns="http://www.w3.org/2000/svg"
   xmlns:svg="http://www.w3.org/2000/svg"
   xmlns:rdf="http://www.w3.org/1999/02/22-rdf-syntax-ns#"
   xmlns:cc="http://creativecommons.org/ns#"
   xmlns:dc="http://purl.org/dc/elements/1.1/">
  <defs
     id="defs2" />
  <metadata
     id="metadata5">
    <rdf:RDF>
      <cc:Work
         rdf:about="">
        <dc:format>image/svg+xml</dc:format>
        <dc:type
           rdf:resource="http://purl.org/dc/dcmitype/StillImage" />
      </cc:Work>
    </rdf:RDF>
  </metadata>
  <g
     id="layer1"
     transform="translate(0,-161.53332)">
    <rect
       id="rect10"
       width="135.46666"
       height="135.46666"
       x="0"
       y="161.53333"
       style="fill:#428bff;fill-opacity:1;stroke-width:0.27759561"
       rx="12.214208"
       ry="12.214208" />
    <g
       aria-label="10."
       style="font-style:normal;font-variant:normal;font-weight:normal;font-stretch:normal;font-size:10.58333302px;line-height:1.25;font-family:Ubuntu;-inkscape-font-specification:Ubuntu;letter-spacing:0px;word-spacing:0px;fill:#000000;fill-opacity:1;stroke:none;stroke-width:0.26458332"
       id="text4522">
      <path
         d="m 9.9612331,210.73877 q 5.3198889,-2.10961 10.6397779,-5.41161 5.411611,-3.302 9.539111,-7.79639 h 7.796389 v 63.5635 H 26.838122 v -48.7045 q -2.4765,1.92617 -6.237111,3.76061 -3.760611,1.83444 -7.246056,3.02683 z"
         style="font-style:normal;font-variant:normal;font-weight:500;font-stretch:normal;font-size:91.72222137px;font-family:Ubuntu;-inkscape-font-specification:'Ubuntu Medium';fill:#ffffff;fill-opacity:1;stroke-width:0.26458332"
         id="path5248" />
      <path
         d="m 101.99158,229.26666 q 0,16.05139 -5.870219,24.67328 -5.870222,8.53016 -16.234833,8.53016 -10.364611,0 -16.234834,-8.53016 -5.870222,-8.62189 -5.870222,-24.67328 0,-7.97984 1.467556,-14.12522 1.559278,-6.23712 4.402666,-10.45634 2.935112,-4.21922 6.970889,-6.42055 4.1275,-2.20134 9.263945,-2.20134 10.364611,0 16.234833,8.62189 5.870219,8.53017 5.870219,24.58156 z m -11.465275,0 q 0,-4.953 -0.550333,-9.26395 -0.550333,-4.31094 -1.834444,-7.4295 -1.192389,-3.21027 -3.210278,-5.04472 -2.017889,-1.83444 -5.044722,-1.83444 -3.026834,0 -5.136445,1.83444 -2.017889,1.83445 -3.302,5.04472 -1.192389,3.11856 -1.742722,7.4295 -0.458611,4.31095 -0.458611,9.26395 0,4.953 0.458611,9.26394 0.550333,4.31095 1.742722,7.52122 1.284111,3.11856 3.302,4.953 2.109611,1.83445 5.136445,1.83445 3.026833,0 5.044722,-1.83445 2.017889,-1.83444 3.210278,-4.953 1.284111,-3.21027 1.834444,-7.52122 0.550333,-4.31094 0.550333,-9.26394 z"
         style="font-style:normal;font-variant:normal;font-weight:500;font-stretch:normal;font-size:91.72222137px;font-family:Ubuntu;-inkscape-font-specification:'Ubuntu Medium';fill:#ffffff;fill-opacity:1;stroke-width:0.26458332"
         id="path5250" />
      <path
         d="m 125.50543,255.0406 q 0,3.21028 -2.20133,5.22817 -2.10961,2.01789 -5.13644,2.01789 -3.11856,0 -5.22817,-2.01789 -2.10961,-2.01789 -2.10961,-5.22817 0,-3.21028 2.10961,-5.22816 2.10961,-2.10962 5.22817,-2.10962 3.02683,0 5.13644,2.10962 2.20133,2.01788 2.20133,5.22816 z"
         style="font-style:normal;font-variant:normal;font-weight:500;font-stretch:normal;font-size:91.72222137px;font-family:Ubuntu;-inkscape-font-specification:'Ubuntu Medium';fill:#ffffff;fill-opacity:1;stroke-width:0.26458332"
         id="path5252" />
    </g>
  </g>
</svg>
